<?xml version="1.0" encoding="UTF-8"?>
<!--Generator: Apple Native CoreSVG 149-->
<!DOCTYPE svg
PUBLIC "-//W3C//DTD SVG 1.1//EN"
       "http://www.w3.org/Graphics/SVG/1.1/DTD/svg11.dtd">
<svg version="1.1" xmlns="http://www.w3.org/2000/svg" xmlns:xlink="http://www.w3.org/1999/xlink" width="3300" height="2200">
 <!--glyph: "", point size: 100.0, font version: "17.0d9e1", template writer version: "59"-->
 <style>.multicolor-0:systemGreenColor {fill:#28CD41;opacity:1.0}

.SFSymbolsPreview28CD41 {fill:#28CD41;opacity:1.0}
</style>
 <g id="Notes">
  <rect height="2200" id="artboard" style="fill:white;opacity:1" width="3300" x="0" y="0"/>
  <line style="fill:none;stroke:black;opacity:1;stroke-width:0.5;" x1="263" x2="3036" y1="292" y2="292"/>
  <text style="stroke:none;fill:black;font-family:sans-serif;font-size:13;font-weight:bold;" transform="matrix(1 0 0 1 263 322)">Weight/Scale Variations</text>
  <text style="stroke:none;fill:black;font-family:sans-serif;font-size:13;text-anchor:middle;" transform="matrix(1 0 0 1 559.711 322)">Ultralight</text>
  <text style="stroke:none;fill:black;font-family:sans-serif;font-size:13;text-anchor:middle;" transform="matrix(1 0 0 1 856.422 322)">Thin</text>
  <text style="stroke:none;fill:black;font-family:sans-serif;font-size:13;text-anchor:middle;" transform="matrix(1 0 0 1 1153.13 322)">Light</text>
  <text style="stroke:none;fill:black;font-family:sans-serif;font-size:13;text-anchor:middle;" transform="matrix(1 0 0 1 1449.84 322)">Regular</text>
  <text style="stroke:none;fill:black;font-family:sans-serif;font-size:13;text-anchor:middle;" transform="matrix(1 0 0 1 1746.56 322)">Medium</text>
  <text style="stroke:none;fill:black;font-family:sans-serif;font-size:13;text-anchor:middle;" transform="matrix(1 0 0 1 2043.27 322)">Semibold</text>
  <text style="stroke:none;fill:black;font-family:sans-serif;font-size:13;text-anchor:middle;" transform="matrix(1 0 0 1 2339.98 322)">Bold</text>
  <text style="stroke:none;fill:black;font-family:sans-serif;font-size:13;text-anchor:middle;" transform="matrix(1 0 0 1 2636.69 322)">Heavy</text>
  <text style="stroke:none;fill:black;font-family:sans-serif;font-size:13;text-anchor:middle;" transform="matrix(1 0 0 1 2933.4 322)">Black</text>
  <line style="fill:none;stroke:black;opacity:1;stroke-width:0.5;" x1="263" x2="3036" y1="1903" y2="1903"/>
  <g transform="matrix(1 0 0 1 263 1933)">
   <path d="M9.24805 0.830078Q10.8691 0.830078 12.2949 0.214844Q13.7207-0.400391 14.8096-1.49414Q15.8984-2.58789 16.5186-4.01367Q17.1387-5.43945 17.1387-7.05078Q17.1387-8.66211 16.5186-10.0879Q15.8984-11.5137 14.8047-12.6074Q13.7109-13.7012 12.2852-14.3164Q10.8594-14.9316 9.23828-14.9316Q7.62695-14.9316 6.20117-14.3164Q4.77539-13.7012 3.69141-12.6074Q2.60742-11.5137 1.9873-10.0879Q1.36719-8.66211 1.36719-7.05078Q1.36719-5.43945 1.9873-4.01367Q2.60742-2.58789 3.69629-1.49414Q4.78516-0.400391 6.21094 0.214844Q7.63672 0.830078 9.24805 0.830078ZM9.24805-0.654297Q7.91992-0.654297 6.7627-1.14746Q5.60547-1.64062 4.73145-2.51953Q3.85742-3.39844 3.36426-4.56055Q2.87109-5.72266 2.87109-7.05078Q2.87109-8.37891 3.35938-9.54102Q3.84766-10.7031 4.72168-11.582Q5.5957-12.4609 6.75293-12.9541Q7.91016-13.4473 9.23828-13.4473Q10.5762-13.4473 11.7334-12.9541Q12.8906-12.4609 13.7695-11.582Q14.6484-10.7031 15.1465-9.54102Q15.6445-8.37891 15.6445-7.05078Q15.6445-5.72266 15.1514-4.56055Q14.6582-3.39844 13.7842-2.51953Q12.9102-1.64062 11.748-1.14746Q10.5859-0.654297 9.24805-0.654297ZM5.83984-7.04102Q5.83984-6.71875 6.04492-6.51855Q6.25-6.31836 6.5918-6.31836L8.50586-6.31836L8.50586-4.39453Q8.50586-4.0625 8.70605-3.85742Q8.90625-3.65234 9.22852-3.65234Q9.56055-3.65234 9.76562-3.85742Q9.9707-4.0625 9.9707-4.39453L9.9707-6.31836L11.8945-6.31836Q12.2266-6.31836 12.4316-6.51855Q12.6367-6.71875 12.6367-7.04102Q12.6367-7.37305 12.4316-7.57812Q12.2266-7.7832 11.8945-7.7832L9.9707-7.7832L9.9707-9.69727Q9.9707-10.0391 9.76562-10.2441Q9.56055-10.4492 9.22852-10.4492Q8.90625-10.4492 8.70605-10.2441Q8.50586-10.0391 8.50586-9.69727L8.50586-7.7832L6.5918-7.7832Q6.25-7.7832 6.04492-7.57812Q5.83984-7.37305 5.83984-7.04102Z"/>
  </g>
  <g transform="matrix(1 0 0 1 281.867 1933)">
   <path d="M11.709 2.91016Q13.75 2.91016 15.5518 2.12891Q17.3535 1.34766 18.7305-0.0292969Q20.1074-1.40625 20.8887-3.20801Q21.6699-5.00977 21.6699-7.05078Q21.6699-9.0918 20.8887-10.8936Q20.1074-12.6953 18.7305-14.0723Q17.3535-15.4492 15.5469-16.2305Q13.7402-17.0117 11.6992-17.0117Q9.6582-17.0117 7.85645-16.2305Q6.05469-15.4492 4.68262-14.0723Q3.31055-12.6953 2.5293-10.8936Q1.74805-9.0918 1.74805-7.05078Q1.74805-5.00977 2.5293-3.20801Q3.31055-1.40625 4.6875-0.0292969Q6.06445 1.34766 7.86621 2.12891Q9.66797 2.91016 11.709 2.91016ZM11.709 1.25Q9.98047 1.25 8.47656 0.605469Q6.97266-0.0390625 5.83496-1.17676Q4.69727-2.31445 4.05762-3.81836Q3.41797-5.32227 3.41797-7.05078Q3.41797-8.7793 4.05762-10.2832Q4.69727-11.7871 5.83008-12.9297Q6.96289-14.0723 8.4668-14.7119Q9.9707-15.3516 11.6992-15.3516Q13.4277-15.3516 14.9316-14.7119Q16.4355-14.0723 17.5781-12.9297Q18.7207-11.7871 19.3652-10.2832Q20.0098-8.7793 20.0098-7.05078Q20.0098-5.32227 19.3701-3.81836Q18.7305-2.31445 17.5928-1.17676Q16.4551-0.0390625 14.9463 0.605469Q13.4375 1.25 11.709 1.25ZM7.39258-7.04102Q7.39258-6.68945 7.62695-6.46484Q7.86133-6.24023 8.23242-6.24023L10.8789-6.24023L10.8789-3.57422Q10.8789-3.21289 11.1035-2.9834Q11.3281-2.75391 11.6797-2.75391Q12.0508-2.75391 12.2852-2.9834Q12.5195-3.21289 12.5195-3.57422L12.5195-6.24023L15.1758-6.24023Q15.5371-6.24023 15.7715-6.46484Q16.0059-6.68945 16.0059-7.04102Q16.0059-7.41211 15.7715-7.6416Q15.5371-7.87109 15.1758-7.87109L12.5195-7.87109L12.5195-10.5176Q12.5195-10.8984 12.2852-11.1279Q12.0508-11.3574 11.6797-11.3574Q11.3281-11.3574 11.1035-11.1279Q10.8789-10.8984 10.8789-10.5176L10.8789-7.87109L8.23242-7.87109Q7.85156-7.87109 7.62207-7.6416Q7.39258-7.41211 7.39258-7.04102Z"/>
  </g>
  <g transform="matrix(1 0 0 1 305.646 1933)">
   <path d="M14.9707 5.66406Q17.0605 5.66406 18.96 5.01465Q20.8594 4.36523 22.4512 3.19336Q24.043 2.02148 25.2197 0.429688Q26.3965-1.16211 27.0459-3.06641Q27.6953-4.9707 27.6953-7.05078Q27.6953-9.14062 27.0459-11.04Q26.3965-12.9395 25.2197-14.5312Q24.043-16.123 22.4512-17.2998Q20.8594-18.4766 18.9551-19.126Q17.0508-19.7754 14.9609-19.7754Q12.8711-19.7754 10.9717-19.126Q9.07227-18.4766 7.48535-17.2998Q5.89844-16.123 4.72168-14.5312Q3.54492-12.9395 2.90039-11.04Q2.25586-9.14062 2.25586-7.05078Q2.25586-4.9707 2.90527-3.06641Q3.55469-1.16211 4.72656 0.429688Q5.89844 2.02148 7.49023 3.19336Q9.08203 4.36523 10.9814 5.01465Q12.8809 5.66406 14.9707 5.66406ZM14.9707 3.84766Q13.1641 3.84766 11.5283 3.2959Q9.89258 2.74414 8.53516 1.74805Q7.17773 0.751953 6.17676-0.610352Q5.17578-1.97266 4.62891-3.6084Q4.08203-5.24414 4.08203-7.05078Q4.08203-8.86719 4.62891-10.5029Q5.17578-12.1387 6.17188-13.501Q7.16797-14.8633 8.52539-15.8594Q9.88281-16.8555 11.5186-17.4023Q13.1543-17.9492 14.9609-17.9492Q16.7773-17.9492 18.4131-17.4023Q20.0488-16.8555 21.4111-15.8594Q22.7734-14.8633 23.7695-13.501Q24.7656-12.1387 25.3174-10.5029Q25.8691-8.86719 25.8691-7.05078Q25.8789-5.24414 25.332-3.6084Q24.7852-1.97266 23.7842-0.610352Q22.7832 0.751953 21.4209 1.74805Q20.0586 2.74414 18.4229 3.2959Q16.7871 3.84766 14.9707 3.84766ZM9.45312-7.04102Q9.45312-6.66016 9.71191-6.41113Q9.9707-6.16211 10.3711-6.16211L14.0625-6.16211L14.0625-2.46094Q14.0625-2.06055 14.3115-1.80664Q14.5605-1.55273 14.9414-1.55273Q15.3516-1.55273 15.6055-1.80664Q15.8594-2.06055 15.8594-2.46094L15.8594-6.16211L19.5605-6.16211Q19.9609-6.16211 20.2148-6.41113Q20.4688-6.66016 20.4688-7.04102Q20.4688-7.45117 20.2148-7.70508Q19.9609-7.95898 19.5605-7.95898L15.8594-7.95898L15.8594-11.6504Q15.8594-12.0605 15.6055-12.3145Q15.3516-12.5684 14.9414-12.5684Q14.5605-12.5684 14.3115-12.3096Q14.0625-12.0508 14.0625-11.6504L14.0625-7.95898L10.3711-7.95898Q9.96094-7.95898 9.70703-7.70508Q9.45312-7.45117 9.45312-7.04102Z"/>
  </g>
  <text style="stroke:none;fill:black;font-family:sans-serif;font-size:13;font-weight:bold;" transform="matrix(1 0 0 1 263 1953)">Design Variations</text>
  <text style="stroke:none;fill:black;font-family:sans-serif;font-size:13;" transform="matrix(1 0 0 1 263 1971)">Symbols are supported in up to nine weights and three scales.</text>
  <text style="stroke:none;fill:black;font-family:sans-serif;font-size:13;" transform="matrix(1 0 0 1 263 1989)">For optimal layout with text and other symbols, vertically align</text>
  <text style="stroke:none;fill:black;font-family:sans-serif;font-size:13;" transform="matrix(1 0 0 1 263 2007)">symbols with the adjacent text.</text>
  <line style="fill:none;stroke:#00AEEF;stroke-width:0.5;opacity:1.0;" x1="776" x2="776" y1="1919" y2="1933"/>
  <g transform="matrix(1 0 0 1 776 1933)">
   <path d="M3.31055 0.15625Q3.70117 0.15625 3.91602-0.00976562Q4.13086-0.175781 4.26758-0.585938L5.52734-4.0332L11.2891-4.0332L12.5488-0.585938Q12.6855-0.175781 12.9004-0.00976562Q13.1152 0.15625 13.4961 0.15625Q13.8867 0.15625 14.1162-0.0585938Q14.3457-0.273438 14.3457-0.644531Q14.3457-0.869141 14.2383-1.17188L9.6582-13.3691Q9.48242-13.8184 9.17969-14.043Q8.87695-14.2676 8.4082-14.2676Q7.5-14.2676 7.17773-13.3789L2.59766-1.16211Q2.49023-0.859375 2.49023-0.634766Q2.49023-0.263672 2.70996-0.0537109Q2.92969 0.15625 3.31055 0.15625ZM6.00586-5.51758L8.37891-12.0898L8.42773-12.0898L10.8008-5.51758Z"/>
  </g>
  <line style="fill:none;stroke:#00AEEF;stroke-width:0.5;opacity:1.0;" x1="793.197" x2="793.197" y1="1919" y2="1933"/>
  <text style="stroke:none;fill:black;font-family:sans-serif;font-size:13;font-weight:bold;" transform="matrix(1 0 0 1 776 1953)">Margins</text>
  <text style="stroke:none;fill:black;font-family:sans-serif;font-size:13;" transform="matrix(1 0 0 1 776 1971)">Leading and trailing margins on the left and right side of each symbol</text>
  <text style="stroke:none;fill:black;font-family:sans-serif;font-size:13;" transform="matrix(1 0 0 1 776 1989)">can be adjusted by modifying the x-location of the margin guidelines.</text>
  <text style="stroke:none;fill:black;font-family:sans-serif;font-size:13;" transform="matrix(1 0 0 1 776 2007)">Modifications are automatically applied proportionally to all</text>
  <text style="stroke:none;fill:black;font-family:sans-serif;font-size:13;" transform="matrix(1 0 0 1 776 2025)">scales and weights.</text>
  <g transform="matrix(1 0 0 1 1289 1933)">
   <path d="M2.8418 1.86523L4.54102 3.57422Q5.18555 4.22852 5.90332 4.17969Q6.62109 4.13086 7.31445 3.35938L18.0078-8.42773L17.041-9.4043L6.42578 2.27539Q6.16211 2.57812 5.89355 2.61719Q5.625 2.65625 5.27344 2.30469L4.10156 1.14258Q3.75 0.791016 3.79395 0.522461Q3.83789 0.253906 4.14062-0.0195312L15.6152-10.8203L14.6387-11.7871L3.04688-0.898438Q2.30469-0.214844 2.25098 0.498047Q2.19727 1.21094 2.8418 1.86523ZM9.25781-16.3281Q8.94531-16.0254 8.90625-15.6348Q8.86719-15.2441 9.04297-14.9512Q9.21875-14.6777 9.55566-14.541Q9.89258-14.4043 10.3809-14.5215Q11.4746-14.7754 12.5977-14.7314Q13.7207-14.6875 14.7949-13.9844L14.209-12.5293Q13.9551-11.9043 14.0674-11.4404Q14.1797-10.9766 14.5801-10.5664L16.875-8.25195Q17.2363-7.88086 17.5781-7.82227Q17.9199-7.76367 18.3398-7.8418L19.4043-8.03711L20.0684-7.36328L20.0293-6.80664Q20-6.43555 20.1221-6.12305Q20.2441-5.81055 20.6055-5.44922L21.3672-4.70703Q21.7285-4.3457 22.1533-4.33105Q22.5781-4.31641 22.9297-4.66797L25.8398-7.58789Q26.1914-7.93945 26.1816-8.35449Q26.1719-8.76953 25.8105-9.13086L25.0391-9.89258Q24.6875-10.2539 24.3799-10.3857Q24.0723-10.5176 23.7109-10.4883L23.1348-10.4395L22.4902-11.0742L22.7344-12.1973Q22.832-12.6172 22.6953-12.9834Q22.5586-13.3496 22.1191-13.7891L19.9219-15.9766Q18.6719-17.2168 17.2607-17.8369Q15.8496-18.457 14.4189-18.4814Q12.9883-18.5059 11.665-17.959Q10.3418-17.4121 9.25781-16.3281ZM10.752-15.957Q11.6602-16.6211 12.7002-16.9043Q13.7402-17.1875 14.8047-17.085Q15.8691-16.9824 16.8701-16.5137Q17.8711-16.0449 18.7012-15.2051L21.1328-12.793Q21.3086-12.6172 21.3525-12.4512Q21.3965-12.2852 21.3379-12.0312L21.0156-10.5469L22.5195-9.0625L23.5059-9.12109Q23.6914-9.13086 23.7891-9.09668Q23.8867-9.0625 24.0332-8.91602L24.6094-8.33984L22.168-5.89844L21.5918-6.47461Q21.4453-6.62109 21.4062-6.71875Q21.3672-6.81641 21.377-7.01172L21.4453-7.98828L19.9512-9.47266L18.4277-9.21875Q18.1836-9.16992 18.042-9.2041Q17.9004-9.23828 17.7148-9.41406L15.7129-11.416Q15.5176-11.5918 15.4932-11.7529Q15.4688-11.9141 15.5859-12.1875L16.4648-14.2773Q15.293-15.3711 13.8281-15.791Q12.3633-16.2109 10.8398-15.7617Q10.7227-15.7324 10.6885-15.8057Q10.6543-15.8789 10.752-15.957Z"/>
  </g>
  <text style="stroke:none;fill:black;font-family:sans-serif;font-size:13;font-weight:bold;" transform="matrix(1 0 0 1 1289 1953)">Exporting</text>
  <text style="stroke:none;fill:black;font-family:sans-serif;font-size:13;" transform="matrix(1 0 0 1 1289 1971)">Symbols should be outlined when exporting to ensure the</text>
  <text style="stroke:none;fill:black;font-family:sans-serif;font-size:13;" transform="matrix(1 0 0 1 1289 1989)">design is preserved when submitting to Xcode.</text>
  <text id="template-version" style="stroke:none;fill:black;font-family:sans-serif;font-size:13;text-anchor:end;" transform="matrix(1 0 0 1 3036 1933)">Template v.3.0</text>
  <text style="stroke:none;fill:black;font-family:sans-serif;font-size:13;text-anchor:end;" transform="matrix(1 0 0 1 3036 1951)">Requires Xcode 13 or greater</text>
  <text id="descriptive-name" style="stroke:none;fill:black;font-family:sans-serif;font-size:13;text-anchor:end;" transform="matrix(1 0 0 1 3036 1969)">Generated from custom.heart</text>
  <text style="stroke:none;fill:black;font-family:sans-serif;font-size:13;text-anchor:end;" transform="matrix(1 0 0 1 3036 1987)">Typeset at 100 points</text>
  <text style="stroke:none;fill:black;font-family:sans-serif;font-size:13;" transform="matrix(1 0 0 1 263 726)">Small</text>
  <text style="stroke:none;fill:black;font-family:sans-serif;font-size:13;" transform="matrix(1 0 0 1 263 1156)">Medium</text>
  <text style="stroke:none;fill:black;font-family:sans-serif;font-size:13;" transform="matrix(1 0 0 1 263 1586)">Large</text>
 </g>
 <g id="Guides">
  <g id="H-reference" style="fill:#27AAE1;stroke:none;" transform="matrix(1 0 0 1 339 696)">
   <path d="M0.976562 0L3.66211 0L29.3457-67.1387L30.0293-67.1387L30.0293-70.459L28.125-70.459ZM11.6699-24.4629L46.9727-24.4629L46.2402-26.709L12.4512-26.709ZM55.127 0L57.7637 0L30.6152-70.459L29.4434-70.459L29.4434-67.1387Z"/>
  </g>
  <line id="Baseline-S" style="fill:none;stroke:#27AAE1;opacity:1;stroke-width:0.5;" x1="263" x2="3036" y1="696" y2="696"/>
  <line id="Capline-S" style="fill:none;stroke:#27AAE1;opacity:1;stroke-width:0.5;" x1="263" x2="3036" y1="625.541" y2="625.541"/>
  <g id="H-reference" style="fill:#27AAE1;stroke:none;" transform="matrix(1 0 0 1 339 1126)">
   <path d="M0.976562 0L3.66211 0L29.3457-67.1387L30.0293-67.1387L30.0293-70.459L28.125-70.459ZM11.6699-24.4629L46.9727-24.4629L46.2402-26.709L12.4512-26.709ZM55.127 0L57.7637 0L30.6152-70.459L29.4434-70.459L29.4434-67.1387Z"/>
  </g>
  <line id="Baseline-M" style="fill:none;stroke:#27AAE1;opacity:1;stroke-width:0.5;" x1="263" x2="3036" y1="1126" y2="1126"/>
  <line id="Capline-M" style="fill:none;stroke:#27AAE1;opacity:1;stroke-width:0.5;" x1="263" x2="3036" y1="1055.54" y2="1055.54"/>
  <g id="H-reference" style="fill:#27AAE1;stroke:none;" transform="matrix(1 0 0 1 339 1556)">
   <path d="M0.976562 0L3.66211 0L29.3457-67.1387L30.0293-67.1387L30.0293-70.459L28.125-70.459ZM11.6699-24.4629L46.9727-24.4629L46.2402-26.709L12.4512-26.709ZM55.127 0L57.7637 0L30.6152-70.459L29.4434-70.459L29.4434-67.1387Z"/>
  </g>
  <line id="Baseline-L" style="fill:none;stroke:#27AAE1;opacity:1;stroke-width:0.5;" x1="263" x2="3036" y1="1556" y2="1556"/>
  <line id="Capline-L" style="fill:none;stroke:#27AAE1;opacity:1;stroke-width:0.5;" x1="263" x2="3036" y1="1485.54" y2="1485.54"/>
  <line id="left-margin-Regular-M" style="fill:none;stroke:#00AEEF;stroke-width:0.5;opacity:1.0;" x1="1389.02" x2="1389.02" y1="1030.78" y2="1150.12"/>
  <line id="right-margin-Regular-M" style="fill:none;stroke:#00AEEF;stroke-width:0.5;opacity:1.0;" x1="1510.66" x2="1510.66" y1="1030.78" y2="1150.12"/>
 </g>
 <g id="Symbols">
  <g id="Black-L" transform="matrix(1 0 0 1 2851.36 1556)">
   <path class="multicolor-0:systemGreenColor SFSymbolsPreview28CD41" d="M14.6648-52.1852Q14.6648-38.6096 21.7936-25.1689Q28.9225-11.7282 41.7819 0.932298Q54.6411 13.5927 71.7767 24.9475Q74.6444 26.833 77.3836 28.3363Q80.1226 29.8396 82.0391 29.8396Q84.0113 29.8396 86.7615 28.3363Q89.5116 26.833 92.3015 24.9475Q109.436 13.5927 122.296 0.932298Q135.156-11.7282 142.284-25.1689Q149.412-38.6096 149.412-52.1852Q149.412-65.3157 143.945-75.0596Q138.478-84.8034 129.43-90.2095Q120.382-95.6154 109.731-95.6154Q99.9402-95.6154 93.0487-91.9624Q86.1572-88.3092 82.0391-82.622Q77.9987-88.2885 71.0677-91.952Q64.1367-95.6154 54.3455-95.6154Q43.6949-95.6154 34.6476-90.2095Q25.6003-84.8034 20.1326-75.0596Q14.6648-65.3157 14.6648-52.1852ZM36.1639-52.4188Q36.1639-59.1184 39.0099-64.1933Q41.8562-69.268 46.7612-72.1589Q51.6662-75.0497 57.7709-75.0497Q62.6668-75.0497 66.1171-73.5129Q69.5675-71.9763 72.0445-69.6128Q74.5216-67.2494 76.3426-64.7387Q77.7164-62.7826 79.0746-61.8199Q80.433-60.8574 82.0391-60.8574Q83.7024-60.8574 84.962-61.8199Q86.2218-62.7826 87.6759-64.7387Q89.6552-67.287 92.1031-69.6506Q94.5509-72.014 97.9909-73.5317Q101.431-75.0497 106.327-75.0497Q112.491-75.0497 117.356-72.1589Q122.221-69.268 125.067-64.1933Q127.913-59.1184 127.913-52.4188Q127.913-45.5181 124.683-37.9817Q121.454-30.4452 115.488-22.7728Q109.522-15.1004 101.259-7.69177Q92.9954-0.282979 82.891 6.44111Q82.3387 6.83005 82.0391 6.83005Q81.7978 6.83005 81.2066 6.44111Q71.0814-0.282979 62.8188-7.69177Q54.5563-15.1004 48.5892-22.7728Q42.6221-30.4452 39.393-37.9817Q36.1639-45.5181 36.1639-52.4188Z"/>
  </g>
  <g id="Heavy-L" transform="matrix(1 0 0 1 2555.6 1556)">
   <path class="multicolor-0:systemGreenColor SFSymbolsPreview28CD41" d="M14.9225-52.3093Q14.9225-38.7907 22.0473-25.439Q29.1721-12.0874 42.0631 0.504918Q54.9539 13.0972 72.2198 24.442Q74.6361 26.0281 77.0154 27.2987Q79.3947 28.5694 81.0854 28.5694Q82.8087 28.5694 85.2059 27.2987Q87.6032 26.0281 89.951 24.442Q107.211 13.0972 120.105 0.504918Q132.999-12.0874 140.121-25.439Q147.242-38.7907 147.242-52.3093Q147.242-64.9412 141.976-74.3962Q136.71-83.8511 127.902-89.1208Q119.095-94.3903 108.57-94.3903Q99.0284-94.3903 92.1267-90.6783Q85.225-86.9663 81.0854-81.079Q77.0142-86.9365 70.0753-90.6635Q63.1365-94.3903 53.5948-94.3903Q43.0701-94.3903 34.2657-89.1208Q25.4612-83.8511 20.1919-74.3962Q14.9225-64.9412 14.9225-52.3093ZM33.5806-52.4878Q33.5806-59.6028 36.5495-64.9779Q39.5186-70.353 44.6507-73.3967Q49.7829-76.4402 56.1979-76.4402Q61.3276-76.4402 64.9923-74.7702Q68.657-73.1002 71.2776-70.5404Q73.8982-67.9808 75.7752-65.2833Q77.1058-63.3661 78.3574-62.4731Q79.6091-61.5802 81.0854-61.5802Q82.6005-61.5802 83.7672-62.4731Q84.9341-63.3661 86.345-65.2833Q88.3708-67.9956 90.9691-70.5554Q93.5674-73.1151 97.2172-74.7776Q100.867-76.4402 105.997-76.4402Q112.462-76.4402 117.554-73.3967Q122.646-70.353 125.615-64.9779Q128.584-59.6028 128.584-52.4878Q128.584-45.1317 125.118-37.2552Q121.651-29.3786 115.382-21.4786Q109.112-13.5785 100.612-6.05843Q92.113 1.46178 82.0324 8.17918Q81.3713 8.64085 81.0854 8.64085Q80.8442 8.64085 80.1622 8.17918Q70.0518 1.46178 61.5554-6.05843Q53.0591-13.5785 46.7833-21.4786Q40.5075-29.3786 37.0441-37.2552Q33.5806-45.1317 33.5806-52.4878Z"/>
  </g>
  <g id="Bold-L" transform="matrix(1 0 0 1 2260.18 1556)">
   <path class="multicolor-0:systemGreenColor SFSymbolsPreview28CD41" d="M15.1331-52.4481Q15.1331-39.0277 22.2634-25.8088Q29.3938-12.59 42.3101-0.102685Q55.2262 12.3846 72.5832 23.7039Q74.4713 24.9406 76.4223 25.9395Q78.3733 26.9384 79.7999 26.9384Q81.2273 26.9384 83.2039 25.9395Q85.1805 24.9406 87.0166 23.7039Q104.359 12.3846 117.283-0.102685Q130.206-12.59 137.329-25.8088Q144.452-39.0277 144.452-52.4481Q144.452-64.4791 139.428-73.5778Q134.404-82.6763 125.894-87.7776Q117.384-92.8788 107.035-92.8788Q97.7983-92.8788 90.8665-89.0736Q83.9347-85.2683 79.7999-79.1112Q75.7171-85.2313 68.7522-89.0551Q61.7874-92.8788 52.5507-92.8788Q42.2013-92.8788 33.6988-87.7776Q25.1962-82.6763 20.1647-73.5778Q15.1331-64.4791 15.1331-52.4481ZM30.3282-52.5649Q30.3282-60.1791 33.4547-65.9219Q36.5813-71.6646 42.0049-74.9007Q47.4287-78.1368 54.2368-78.1368Q59.6195-78.1368 63.5369-76.3161Q67.4544-74.4956 70.2556-71.6976Q73.057-68.8996 75.0139-65.9386Q76.2617-64.1053 77.3752-63.303Q78.4888-62.5009 79.7999-62.5009Q81.1261-62.5009 82.1702-63.303Q83.2144-64.1053 84.5425-65.9386Q86.6319-68.8918 89.4186-71.6898Q92.2053-74.4878 96.1042-76.3123Q100.003-78.1368 105.386-78.1368Q112.237-78.1368 117.621-74.9007Q123.004-71.6646 126.131-65.9219Q129.258-60.1791 129.258-52.5649Q129.258-44.6909 125.525-36.4324Q121.792-28.174 115.169-20.0149Q108.547-11.8559 99.7485-4.18957Q90.9504 3.47686 80.8274 10.2328Q80.0704 10.7615 79.7999 10.7615Q79.5586 10.7615 78.7952 10.2328Q68.6352 3.47686 59.8442-4.18957Q51.0532-11.8559 44.4163-20.0149Q37.7794-28.174 34.0538-36.4324Q30.3282-44.6909 30.3282-52.5649Z"/>
  </g>
  <g id="Semibold-L" transform="matrix(1 0 0 1 1964.36 1556)">
   <path class="multicolor-0:systemGreenColor SFSymbolsPreview28CD41" d="M15.2783-52.5438Q15.2783-39.1912 22.4124-26.0638Q29.5466-12.9364 42.4803-0.521563Q55.4139 11.8933 72.8337 23.195Q74.3578 24.1909 76.0134 25.0024Q77.6691 25.814 78.9137 25.814Q80.1371 25.814 81.8237 25.0024Q83.5103 24.1909 84.9937 23.195Q102.394 11.8933 115.337-0.521563Q128.281-12.9364 135.405-26.0638Q142.529-39.1912 142.529-52.5438Q142.529-64.1606 137.672-73.0136Q132.814-81.8665 124.509-86.8517Q116.205-91.8367 105.977-91.8367Q96.9503-91.8367 89.9977-87.9672Q83.0451-84.0977 78.9137-77.7546Q74.8229-84.0557 67.8401-87.9463Q60.8573-91.8367 51.831-91.8367Q41.6024-91.8367 33.308-86.8517Q25.0136-81.8665 20.1459-73.0136Q15.2783-64.1606 15.2783-52.5438ZM28.086-52.618Q28.086-60.5764 31.3211-66.5726Q34.5564-72.5687 40.1809-75.9376Q45.8057-79.3064 52.8848-79.3064Q58.4419-79.3064 62.5336-77.3819Q66.6252-75.4576 69.5511-72.4953Q72.477-69.5331 74.4891-66.3904Q75.6797-64.6148 76.6981-63.8752Q77.7165-63.1357 78.9137-63.1357Q80.1096-63.1357 81.0693-63.8752Q82.0289-64.6148 83.2999-66.3904Q85.4331-69.5096 88.3497-72.4719Q91.2662-75.4342 95.3369-77.3703Q99.4076-79.3064 104.965-79.3064Q112.082-79.3064 117.667-75.9376Q123.251-72.5687 126.486-66.5726Q129.722-60.5764 129.722-52.618Q129.722-44.3869 125.805-35.8652Q121.889-27.3435 115.023-19.0059Q108.157-10.6684 99.153-2.90119Q90.1489 4.86604 79.9966 11.6486Q79.1735 12.2234 78.9137 12.2234Q78.6724 12.2234 77.8528 11.6486Q67.6587 4.86604 58.6645-2.90119Q49.6704-10.6684 42.7845-19.0059Q35.8986-27.3435 31.9923-35.8652Q28.086-44.3869 28.086-52.618Z"/>
  </g>
  <g id="Medium-L" transform="matrix(1 0 0 1 1668.33 1556)">
   <path class="multicolor-0:systemGreenColor SFSymbolsPreview28CD41" d="M15.3884-52.6163Q15.3884-39.3151 22.5254-26.2571Q29.6625-13.1991 42.6094-0.839173Q55.5563 11.5208 73.0237 22.8091Q74.2717 23.6224 75.7034 24.2919Q77.1351 24.9614 78.2417 24.9614Q79.3105 24.9614 80.7772 24.2919Q82.2439 23.6224 83.4598 22.8091Q100.903 11.5208 113.862-0.839173Q126.821-13.1991 133.946-26.2571Q141.071-39.3151 141.071-52.6163Q141.071-63.919 136.34-72.5858Q131.608-81.2524 123.46-86.1496Q115.311-91.0466 105.174-91.0466Q96.3073-91.0466 89.3389-87.1284Q82.3707-83.2101 78.2417-76.726Q74.1449-83.1644 67.1485-87.1055Q60.1521-91.0466 51.2852-91.0466Q41.1483-91.0466 33.0117-86.1496Q24.8751-81.2524 20.1317-72.5858Q15.3884-63.919 15.3884-52.6163ZM26.3858-52.6583Q26.3858-60.8776 29.7033-67.066Q33.021-73.2543 38.7979-76.7238Q44.575-80.1932 51.8597-80.1932Q57.549-80.1932 61.7728-78.1901Q65.9966-76.187 69.0168-73.1002Q72.0372-70.0134 74.0911-66.7329Q75.2384-65.0012 76.1846-64.309Q77.1309-63.617 78.2417-63.617Q79.3389-63.617 80.2345-64.309Q81.13-65.0012 82.3577-66.7329Q84.5241-69.9781 87.5392-73.065Q90.5542-76.1518 94.7551-78.1725Q98.956-80.1932 104.645-80.1932Q111.965-80.1932 117.702-76.7238Q123.438-73.2543 126.756-67.066Q130.073-60.8776 130.073-52.6583Q130.073-44.1565 126.018-35.4351Q121.963-26.7138 114.912-18.2408Q107.862-9.76791 98.7014-1.92428Q89.5411 5.91938 79.3667 12.7221Q78.4935 13.3319 78.2417 13.3319Q78.0005 13.3319 77.1383 12.7221Q66.9182 5.91938 57.77-1.92428Q48.6219-9.76791 41.5472-18.2408Q34.4725-26.7138 30.4292-35.4351Q26.3858-44.1565 26.3858-52.6583Z"/>
  </g>
  <g id="Regular-L" transform="matrix(1 0 0 1 1372.5 1556)">
   <path class="multicolor-0:systemGreenColor SFSymbolsPreview28CD41" d="M15.532-52.7109Q15.532-39.4767 22.6728-26.5092Q29.8136-13.5418 42.7778-1.25345Q55.7419 11.0349 73.2714 22.3059Q74.1594 22.8809 75.299 23.3651Q76.4387 23.8493 77.3653 23.8493Q78.2323 23.8493 79.4122 23.3651Q80.5921 22.8809 81.4591 22.3059Q98.9588 11.0349 111.938-1.25345Q124.917-13.5418 132.043-26.5092Q139.169-39.4767 139.169-52.7109Q139.169-63.604 134.602-72.0278Q130.036-80.4515 122.09-85.2338Q114.145-90.016 104.127-90.016Q95.4685-90.016 88.4797-86.0342Q81.4909-82.0524 77.3653-75.3843Q73.2605-82.0017 66.2463-86.0089Q59.2322-90.016 50.5733-90.016Q40.556-90.016 32.6252-85.2338Q24.6944-80.4515 20.1131-72.0278Q15.532-63.604 15.532-52.7109ZM24.1683-52.7109Q24.1683-61.2705 27.5932-67.7096Q31.0183-74.1486 36.994-77.7493Q42.9699-81.35 50.5226-81.35Q56.3844-81.35 60.7805-79.2442Q65.1766-77.1384 68.32-73.8891Q71.4636-70.6399 73.5721-67.1797Q74.6629-65.5052 75.515-64.8749Q76.3671-64.2449 77.3653-64.2449Q78.3336-64.2449 79.1456-64.8749Q79.9575-65.5052 81.1287-67.1797Q83.3385-70.5891 86.482-73.8385Q89.6255-77.0877 93.9962-79.2188Q98.367-81.35 104.229-81.35Q111.811-81.35 117.747-77.7493Q123.682-74.1486 127.108-67.7096Q130.532-61.2705 130.532-52.7109Q130.532-43.8559 126.295-34.8741Q122.059-25.8925 114.767-17.2429Q107.476-8.59341 98.1123-0.650062Q88.7484 7.2933 78.5451 14.1223Q77.6065 14.7778 77.3653 14.7778Q77.124 14.7778 76.2063 14.1223Q65.9523 7.2933 56.6032-0.650062Q47.2543-8.59341 39.9334-17.2429Q32.6124-25.8925 28.3904-34.8741Q24.1683-43.8559 24.1683-52.7109Z"/>
  </g>
  <g id="Light-L" transform="matrix(1 0 0 1 1077.35 1556)">
   <path class="multicolor-0:systemGreenColor SFSymbolsPreview28CD41" d="M14.9779-52.7109Q14.9779-39.723 22.1905-26.9915Q29.4031-14.26 42.2955-2.17695Q55.1878 9.90622 72.3274 21.0745Q73.0511 21.547 74.0061 21.9491Q74.9611 22.3512 75.8056 22.3512Q76.5495 22.3512 77.5447 21.9491Q78.5399 21.547 79.2838 21.0745Q96.373 9.90622 109.29-2.17695Q122.208-14.26 129.395-26.9915Q136.583-39.723 136.583-52.7109Q136.583-63.2961 132.14-71.4839Q127.697-79.6717 119.956-84.3412Q112.216-89.0104 102.445-89.0104Q93.9705-89.0104 86.8482-84.8337Q79.726-80.6569 75.8056-73.6604Q71.865-80.6267 64.7277-84.8186Q57.5905-89.0104 49.1162-89.0104Q39.3452-89.0104 31.6299-84.3412Q23.9145-79.6717 19.4462-71.4839Q14.9779-63.2961 14.9779-52.7109ZM21.5825-52.7109Q21.5825-61.5168 25.1511-68.1816Q28.7198-74.8463 34.9623-78.6009Q41.205-82.3555 49.0861-82.3555Q54.8863-82.3555 59.3747-80.2395Q63.8632-78.1234 67.1503-74.7408Q70.4375-71.3581 72.6691-67.5081Q73.5136-66.1208 74.2324-65.583Q74.9511-65.0452 75.8056-65.0452Q76.6098-65.0452 77.2883-65.583Q77.9669-66.1208 78.8918-67.5081Q81.1837-71.3279 84.4709-74.7107Q87.758-78.0933 92.2313-80.2244Q96.7047-82.3555 102.505-82.3555Q110.436-82.3555 116.639-78.6009Q122.841-74.8463 126.41-68.1816Q129.978-61.5168 129.978-52.7109Q129.978-43.7943 125.731-34.8023Q121.484-25.8104 114.1-17.13Q106.717-8.44975 97.1068-0.352497Q87.4966 7.74478 76.8008 14.9021Q76.0468 15.455 75.8056 15.455Q75.5643 15.455 74.7903 14.9021Q64.0643 7.74478 54.4792-0.352497Q44.8942-8.44975 37.4605-17.13Q30.0266-25.8104 25.8046-34.8023Q21.5825-43.7943 21.5825-52.7109Z"/>
  </g>
  <g id="Thin-L" transform="matrix(1 0 0 1 782.719 1556)">
   <path class="multicolor-0:systemGreenColor SFSymbolsPreview28CD41" d="M14.245-52.7109Q14.245-40.0487 21.5527-27.6293Q28.8603-15.21 41.6577-3.39836Q54.455 8.41341 71.0789 19.446Q71.5854 19.7828 72.2962 20.0763Q73.0069 20.3699 73.7428 20.3699Q74.3239 20.3699 75.0747 20.0763Q75.8257 19.7828 76.4068 19.446Q92.9531 8.41341 105.789-3.39836Q118.625-15.21 125.894-27.6293Q133.163-40.0487 133.163-52.7109Q133.163-62.889 128.883-70.7646Q124.602-78.6403 117.133-83.1605Q109.664-87.6805 100.219-87.6805Q91.9891-87.6805 84.6905-83.2459Q77.3918-78.8112 73.7428-71.3805Q70.0194-78.8082 62.7192-83.2444Q55.4192-87.6805 47.1891-87.6805Q37.7438-87.6805 30.3135-83.1605Q22.8831-78.6403 18.5641-70.7646Q14.245-62.889 14.245-52.7109ZM18.1627-52.7109Q18.1627-61.8426 21.9213-68.8058Q25.6798-75.7691 32.2752-79.7273Q38.8708-83.6855 47.1861-83.6855Q52.905-83.6855 57.5155-81.5559Q62.1261-79.4262 65.6032-75.8672Q69.0805-72.3081 71.4749-67.9424Q71.9937-66.9351 72.536-66.5194Q73.0782-66.1038 73.7428-66.1038Q74.3299-66.1038 74.8319-66.5194Q75.3341-66.9351 75.9333-67.9424Q78.3337-72.305 81.811-75.8642Q85.2881-79.4232 89.8971-81.5544Q94.5062-83.6855 100.225-83.6855Q108.618-83.6855 115.173-79.7273Q121.728-75.7691 125.487-68.8058Q129.245-61.8426 129.245-52.7109Q129.245-43.7129 124.985-34.7073Q120.724-25.7018 113.218-16.9807Q105.713-8.25976 95.7768 0.0410573Q85.8409 8.3419 74.4937 15.9335Q73.984 16.3507 73.7428 16.3507Q73.5016 16.3507 72.9175 15.9335Q61.5672 8.3419 51.67 0.0410573Q41.7728-8.25976 34.1898-16.9807Q26.6067-25.7018 22.3848-34.7073Q18.1627-43.7129 18.1627-52.7109Z"/>
  </g>
  <g id="Ultralight-L" transform="matrix(1 0 0 1 487.071 1556)">
   <path class="multicolor-0:systemGreenColor SFSymbolsPreview28CD41" d="M13.8697-52.7109Q13.8697-40.2155 21.226-27.956Q28.5822-15.6966 41.331-4.02396Q54.0797 7.6488 70.4394 18.6119Q70.8347 18.8792 71.4204 19.1171Q72.006 19.355 72.6863 19.355Q73.1839 19.355 73.8096 19.1171Q74.4356 18.8792 74.9332 18.6119Q91.2015 7.6488 103.996-4.02396Q116.79-15.6966 124.101-27.956Q131.412-40.2155 131.412-52.7109Q131.412-62.6805 127.215-70.3962Q123.018-78.1121 115.688-82.5558Q108.358-86.9993 99.079-86.9993Q90.9743-86.9993 83.5853-82.4327Q76.1962-77.8659 72.6863-70.2127Q69.074-77.8768 61.6904-82.4381Q54.307-86.9993 46.2021-86.9993Q36.9236-86.9993 29.6392-82.5558Q22.3548-78.1121 18.1123-70.3962Q13.8697-62.6805 13.8697-52.7109ZM16.411-52.7109Q16.411-62.0094 20.2669-69.1256Q24.1228-76.2418 30.8989-80.3042Q37.6752-84.3666 46.213-84.3666Q51.8902-84.3666 56.5633-82.2302Q61.2364-80.0935 64.8108-76.4441Q68.3854-72.7946 70.8632-68.1648Q71.2151-67.3522 71.6672-66.999Q72.119-66.6459 72.6863-66.6459Q73.1622-66.6459 73.5738-66.999Q73.9856-67.3522 74.418-68.1648Q76.874-72.8055 80.4486-76.455Q84.023-80.1044 88.7016-82.2356Q93.3801-84.3666 99.0573-84.3666Q107.686-84.3666 114.422-80.3042Q121.158-76.2418 125.014-69.1256Q128.87-62.0094 128.87-52.7109Q128.87-43.6712 124.602-34.6586Q120.335-25.6462 112.766-16.9042Q105.198-8.16244 95.0956 0.242634Q84.9929 8.64775 73.312 16.4618Q72.9274 16.8095 72.6863 16.8095Q72.445 16.8095 71.9583 16.4618Q60.2883 8.64775 50.2312 0.242634Q40.1741-8.16244 32.5147-16.9042Q24.855-25.6462 20.6331-34.6586Q16.411-43.6712 16.411-52.7109Z"/>
  </g>
  <g id="Black-M" transform="matrix(1 0 0 1 2869.23 1126)">
   <path class="multicolor-0:systemGreenColor SFSymbolsPreview28CD41" d="M11.0648-48.2593Q11.0648-37.7261 16.6011-27.2684Q22.1373-16.8108 32.0631-6.97137Q41.9888 2.86794 55.0996 11.6596Q57.6871 13.3638 60.0935 14.7173Q62.4997 16.0708 64.1674 16.0708Q65.8927 16.0708 68.3017 14.7173Q70.7105 13.3638 73.2352 11.6596Q86.3463 2.86794 96.2719-6.97137Q106.197-16.8108 111.734-27.2684Q117.27-37.7261 117.27-48.2593Q117.27-58.8187 112.879-66.5842Q108.487-74.3495 101.299-78.6397Q94.11-82.9298 85.7835-82.9298Q78.0086-82.9298 72.6601-80.1239Q67.3117-77.3178 64.1674-73.0391Q61.0859-77.3123 55.7063-80.1211Q50.3266-82.9298 42.5515-82.9298Q34.2252-82.9298 27.0364-78.6397Q19.8476-74.3495 15.4562-66.5842Q11.0648-58.8187 11.0648-48.2593ZM29.8875-48.4877Q29.8875-53.3545 32.0063-57.0587Q34.1253-60.7627 37.7664-62.892Q41.4074-65.0211 45.9147-65.0211Q49.4985-65.0211 51.9999-63.9437Q54.5014-62.8665 56.3166-61.1859Q58.1318-59.5055 59.5111-57.668Q60.5791-56.158 61.7051-55.3649Q62.831-54.5718 64.1674-54.5718Q65.5612-54.5718 66.5988-55.3649Q67.6366-56.158 68.7669-57.668Q70.2715-59.5571 72.0582-61.2376Q73.8448-62.918 76.3435-63.9695Q78.8422-65.0211 82.4258-65.0211Q86.99-65.0211 90.5999-62.892Q94.2098-60.7627 96.3287-57.0587Q98.4477-53.3545 98.4477-48.4877Q98.4477-43.5244 96.1475-37.9765Q93.8473-32.4286 89.4739-26.6759Q85.1007-20.9233 78.8685-15.2584Q72.6362-9.5934 64.7206-4.33373Q64.4114-4.10882 64.1674-4.10882Q63.9804-4.10882 63.62-4.33373Q55.6988-9.5934 49.4664-15.2584Q43.2341-20.9233 38.8611-26.6759Q34.4882-32.4286 32.1878-37.9765Q29.8875-43.5244 29.8875-48.4877Z"/>
  </g>
  <g id="Heavy-M" transform="matrix(1 0 0 1 2573.31 1126)">
   <path class="multicolor-0:systemGreenColor SFSymbolsPreview28CD41" d="M11.3679-48.3806Q11.3679-37.8804 16.8936-27.488Q22.4192-17.0957 32.3825-7.30397Q42.3457 2.48766 55.6199 11.2791Q57.7812 12.7 59.8529 13.8337Q61.9245 14.9673 63.379 14.9673Q64.8723 14.9673 66.9533 13.8337Q69.0342 12.7 71.1381 11.2791Q84.4099 2.48766 94.3744-7.30397Q104.339-17.0957 109.863-27.488Q115.388-37.8804 115.388-48.3806Q115.388-58.4811 111.181-65.9858Q106.975-73.4904 100.002-77.6577Q93.0296-81.8249 84.8035-81.8249Q77.2554-81.8249 71.9093-78.9794Q66.5632-76.1337 63.379-71.6898Q60.2522-76.1175 54.8762-78.9713Q49.5003-81.8249 41.9521-81.8249Q33.7261-81.8249 26.7548-77.6577Q19.7835-73.4904 15.5757-65.9858Q11.3679-58.4811 11.3679-48.3806ZM27.6007-48.555Q27.6007-53.8052 29.8264-57.7822Q32.0522-61.759 35.8907-64.0234Q39.7292-66.2877 44.5096-66.2877Q48.3276-66.2877 51.03-65.0809Q53.7325-63.8743 55.6747-62.0142Q57.617-60.1542 59.0397-58.1701Q60.0883-56.6717 61.1223-55.9381Q62.1562-55.2046 63.379-55.2046Q64.643-55.2046 65.6022-55.9381Q66.5614-56.6717 67.6723-58.1701Q69.2147-60.1816 71.1352-62.0416Q73.0556-63.9016 75.75-65.0946Q78.4443-66.2877 82.2623-66.2877Q87.0888-66.2877 90.8961-64.0234Q94.7035-61.759 96.9292-57.7822Q99.155-53.8052 99.155-48.555Q99.155-43.1523 96.6243-37.2729Q94.0937-31.3935 89.4317-25.4211Q84.7699-19.4488 78.3295-13.6892Q71.8891-7.92943 64.0423-2.70659Q63.6095-2.40111 63.379-2.40111Q63.1921-2.40111 62.7296-2.70659Q54.8665-7.92943 48.4273-13.6892Q41.9881-19.4488 37.3238-25.4211Q32.6595-31.3935 30.1301-37.2729Q27.6007-43.1523 27.6007-48.555Z"/>
  </g>
  <g id="Bold-M" transform="matrix(1 0 0 1 2277.48 1126)">
   <path class="multicolor-0:systemGreenColor SFSymbolsPreview28CD41" d="M11.7069-48.5162Q11.7069-38.0529 17.2207-27.7336Q22.7345-17.4144 32.7399-7.67603Q42.745 2.06226 56.202 10.8534Q57.8865 11.9575 59.5838 12.8452Q61.281 13.7329 62.4971 13.7329Q63.7307 13.7329 65.4449 12.8452Q67.159 11.9575 68.7923 10.8534Q82.2437 2.06226 92.2517-7.67603Q102.26-17.4144 107.771-27.7336Q113.282-38.0529 113.282-48.5162Q113.282-58.1033 109.282-65.3164Q105.282-72.5294 98.5517-76.5592Q91.8211-80.5889 83.7072-80.5889Q76.4129-80.5889 71.0694-77.6991Q65.7259-74.8091 62.4971-70.1803Q59.3196-74.7809 53.9477-77.685Q48.5759-80.5889 41.2815-80.5889Q33.1678-80.5889 26.4398-76.5592Q19.7119-72.5294 15.7094-65.3164Q11.7069-58.1033 11.7069-48.5162ZM25.0426-48.6304Q25.0426-54.3094 27.3878-58.5915Q29.7331-62.8735 33.7925-65.2891Q37.8518-67.7046 42.9377-67.7046Q47.0178-67.7046 49.9451-66.3531Q52.8724-65.0017 54.9568-62.9407Q57.0412-60.8799 58.5125-58.7318Q59.5392-57.2463 60.4703-56.5793Q61.4014-55.9124 62.4971-55.9124Q63.6159-55.9124 64.4873-56.5793Q65.3587-57.2463 66.4477-58.7318Q68.0326-60.8801 70.1027-62.9411Q72.1728-65.002 75.086-66.3532Q77.9992-67.7046 82.0793-67.7046Q87.1993-67.7046 91.2275-65.2891Q95.2556-62.8735 97.6009-58.5915Q99.9462-54.3094 99.9462-48.6304Q99.9462-42.7362 97.1578-36.4858Q94.3693-30.2356 89.3845-24.0175Q84.3998-17.7993 77.7266-11.9337Q71.0533-6.06805 63.2834-0.88641Q62.7126-0.490794 62.4971-0.490794Q62.3102-0.490794 61.7335-0.88641Q53.9354-6.06805 47.2649-11.9337Q40.5944-17.7993 35.6042-24.0175Q30.6139-30.2356 27.8283-36.4858Q25.0426-42.7362 25.0426-48.6304Z"/>
  </g>
  <g id="Semibold-M" transform="matrix(1 0 0 1 1981.38 1126)">
   <path class="multicolor-0:systemGreenColor SFSymbolsPreview28CD41" d="M11.9406-48.6098Q11.9406-38.1719 17.4463-27.9029Q22.9519-17.634 32.9862-7.93252Q43.0203 1.76899 56.6033 10.5599Q57.9591 11.4456 59.3982 12.1637Q60.8374 12.8819 61.8892 12.8819Q62.9438 12.8819 64.4051 12.1637Q65.8663 11.4456 67.175 10.5599Q80.7503 1.76899 90.7883-7.93252Q100.826-17.634 106.328-27.9029Q111.83-38.1719 111.83-48.6098Q111.83-57.8429 107.973-64.855Q104.116-71.8669 97.5518-75.802Q90.9879-79.7369 82.9514-79.7369Q75.832-79.7369 70.4903-76.8165Q65.1487-73.896 61.8892-69.1397Q58.6766-73.8595 53.3076-76.7982Q47.9387-79.7369 40.8193-79.7369Q32.7829-79.7369 26.2227-75.802Q19.6625-71.8669 15.8015-64.855Q11.9406-57.8429 11.9406-48.6098ZM23.279-48.6824Q23.279-54.657 25.7066-59.1495Q28.1344-63.6418 32.346-66.1616Q36.5576-68.6814 41.854-68.6814Q46.1148-68.6814 49.1971-67.2301Q52.2795-65.7789 54.4618-63.5795Q56.6442-61.3802 58.149-59.1191Q59.1607-57.6424 60.0208-57.0213Q60.881-56.4004 61.8892-56.4004Q62.9079-56.4004 63.7187-57.0213Q64.5295-57.6424 65.6035-59.1191Q67.2177-61.3617 69.3909-63.5612Q71.5642-65.7605 74.6283-67.2209Q77.6924-68.6814 81.9532-68.6814Q87.2754-68.6814 91.4559-66.1616Q95.6363-63.6418 98.064-59.1495Q100.492-54.657 100.492-48.6824Q100.492-42.4492 97.5255-35.9432Q94.5593-29.4373 89.352-23.0498Q84.1447-16.6622 77.311-10.7235Q70.4772-4.78482 62.7603 0.368414Q62.0942 0.826166 61.8892 0.826166Q61.7022 0.826166 61.0469 0.368414Q53.2935-4.78482 46.4635-10.7235Q39.6336-16.6622 34.4187-23.0498Q29.2037-29.4373 26.2414-35.9432Q23.279-42.4492 23.279-48.6824Z"/>
  </g>
  <g id="Medium-M" transform="matrix(1 0 0 1 1685.13 1126)">
   <path class="multicolor-0:systemGreenColor SFSymbolsPreview28CD41" d="M12.1179-48.6807Q12.1179-38.2621 17.6173-28.0313Q23.1168-17.8006 33.173-8.12701Q43.2291 1.54662 56.9075 10.3374Q58.0141 11.0574 59.2575 11.647Q60.501 12.2366 61.4282 12.2366Q62.3471 12.2366 63.6166 11.647Q64.8861 11.0574 65.9488 10.3374Q79.618 1.54662 89.6788-8.12701Q99.7396-17.8006 105.234-28.0313Q110.729-38.2621 110.729-48.6807Q110.729-57.6455 106.98-64.5051Q103.231-71.3646 96.7937-75.2277Q90.3561-79.0908 82.3783-79.0908Q75.3916-79.0908 70.0513-76.1472Q64.711-73.2036 61.4282-68.3507Q58.1891-73.1608 52.8223-76.1258Q47.4555-79.0908 40.4687-79.0908Q32.4911-79.0908 26.058-75.2277Q19.625-71.3646 15.8714-64.5051Q12.1179-57.6455 12.1179-48.6807ZM21.9418-48.7218Q21.9418-54.9206 24.4319-59.5725Q26.9221-64.2244 31.2491-66.8232Q35.5763-69.422 41.0324-69.422Q45.4301-69.422 48.63-67.8951Q51.8299-66.3682 54.0865-64.0638Q56.3432-61.7595 57.8734-59.4127Q58.8737-57.9428 59.68-57.3565Q60.4864-56.7703 61.4282-56.7703Q62.371-56.7703 63.1359-57.3565Q63.9008-57.9428 64.9634-59.4127Q66.5997-61.7269 68.8512-64.0313Q71.1027-66.3357 74.2812-67.8788Q77.4597-69.422 81.8576-69.422Q87.3332-69.422 91.6291-66.8232Q95.925-64.2244 98.4151-59.5725Q100.905-54.9206 100.905-48.7218Q100.905-42.2317 97.8043-35.5318Q94.7034-28.8321 89.3273-22.316Q83.9513-15.8 76.9958-9.80592Q70.0403-3.81182 62.3636 1.31987Q61.6254 1.82474 61.4282 1.82474Q61.2412 1.82474 60.5262 1.31987Q52.8068-3.81182 45.8559-9.80592Q38.905-15.8 33.5197-22.316Q28.1344-28.8321 25.0381-35.5318Q21.9418-42.2317 21.9418-48.7218Z"/>
  </g>
  <g id="Regular-M" transform="matrix(1 0 0 1 1389.02 1126)">
   <path class="multicolor-0:systemGreenColor SFSymbolsPreview28CD41" d="M12.349-48.7732Q12.349-38.3798 17.8404-28.1988Q23.3317-18.0179 33.4166-8.38068Q43.5013 1.25658 57.3044 10.0471Q58.0859 10.5511 59.074 10.973Q60.0623 11.3949 60.8269 11.3949Q61.5688 11.3949 62.5882 10.973Q63.6075 10.5511 64.3494 10.0471Q78.1411 1.25658 88.2315-8.38068Q98.322-18.0179 103.808-28.1988Q109.293-38.3798 109.293-48.7732Q109.293-57.3879 105.686-64.0487Q102.078-70.7094 95.8048-74.4788Q89.5321-78.2481 81.6308-78.2481Q74.8172-78.2481 69.4786-75.2743Q64.1401-72.3005 60.8269-67.3216Q57.5532-72.2495 52.1892-75.2488Q46.8253-78.2481 40.0116-78.2481Q32.1104-78.2481 25.8433-74.4788Q19.5762-70.7094 15.9626-64.0487Q12.349-57.3879 12.349-48.7732ZM20.1977-48.7732Q20.1977-55.2644 22.7693-60.1244Q25.3409-64.9843 29.8185-67.6862Q34.2963-70.3881 39.9606-70.3881Q44.5371-70.3881 47.8903-68.7624Q51.2435-67.1369 53.597-64.6955Q55.9506-62.2543 57.5139-59.7956Q58.4993-58.3346 59.2355-57.7937Q59.9717-57.2529 60.8269-57.2529Q61.6707-57.2529 62.3758-57.7937Q63.0808-58.3346 64.1285-59.7956Q65.7938-62.2032 68.1473-64.6446Q70.5008-67.0859 73.8285-68.737Q77.1563-70.3881 81.7328-70.3881Q87.4085-70.3881 91.855-67.6862Q96.3015-64.9843 98.8731-60.1244Q101.445-55.2644 101.445-48.7732Q101.445-41.9479 98.168-34.9952Q94.8913-28.0426 89.2952-21.359Q83.699-14.6754 76.5848-8.60904Q69.4705-2.5427 61.8462 2.56091Q61.0138 3.12723 60.8269 3.12723Q60.6399 3.12723 59.8471 2.56091Q52.1719-2.5427 45.0633-8.60904Q37.9547-14.6754 32.3472-21.359Q26.7397-28.0426 23.4687-34.9952Q20.1977-41.9479 20.1977-48.7732Z"/>
  </g>
  <g id="Light-M" transform="matrix(1 0 0 1 1093.72 1126)">
   <path class="multicolor-0:systemGreenColor SFSymbolsPreview28CD41" d="M11.8522-48.7732Q11.8522-38.6006 17.408-28.6312Q22.9638-18.6619 32.9842-9.20865Q43.0046 0.244633 56.458 8.94317Q57.0923 9.35519 57.9149 9.7035Q58.7375 10.0518 59.4286 10.0518Q60.0601 10.0518 60.9138 9.7035Q61.7676 9.35519 62.3991 8.94317Q75.8228 0.244633 85.858-9.20865Q95.8933-18.6619 101.434-28.6312Q106.975-38.6006 106.975-48.7732Q106.975-57.1119 103.478-63.5611Q99.9801-70.0102 93.8913-73.6784Q87.8026-77.3465 80.1221-77.3465Q73.4741-77.3465 68.0159-74.198Q62.5578-71.0493 59.4286-65.776Q56.3021-71.0168 50.8277-74.1817Q45.3534-77.3465 38.7052-77.3465Q31.0249-77.3465 24.9509-73.6784Q18.877-70.0102 15.3646-63.5611Q11.8522-57.1119 11.8522-48.7732ZM17.8794-48.7732Q17.8794-55.4852 20.5798-60.5475Q23.2802-65.6098 27.997-68.4497Q32.714-71.2896 38.6727-71.2896Q43.1939-71.2896 46.6299-69.6548Q50.0659-68.02 52.5482-65.4591Q55.0307-62.8982 56.7044-60.09Q57.469-58.8866 58.0856-58.4285Q58.7022-57.9705 59.4286-57.9705Q60.1252-57.9705 60.7106-58.4285Q61.2961-58.8866 62.123-60.09Q63.8618-62.8656 66.3442-65.4265Q68.8265-67.9874 72.2462-69.6385Q75.6659-71.2896 80.1873-71.2896Q86.1758-71.2896 90.8615-68.4497Q95.5471-65.6098 98.2476-60.5475Q100.948-55.4852 100.948-48.7732Q100.948-41.8927 97.662-34.9308Q94.3761-27.969 88.6972-21.2578Q83.0183-14.5466 75.6832-8.34226Q68.3481-2.13792 60.2823 3.26007Q59.6154 3.7344 59.4286 3.7344Q59.2416 3.7344 58.5776 3.26007Q50.4792-2.13792 43.159-8.34226Q35.8388-14.5466 30.1302-21.2578Q24.4214-27.969 21.1505-34.9308Q17.8794-41.8927 17.8794-48.7732Z"/>
  </g>
  <g id="Thin-M" transform="matrix(1 0 0 1 798.871 1126)">
   <path class="multicolor-0:systemGreenColor SFSymbolsPreview28CD41" d="M11.1952-48.7732Q11.1952-38.8926 16.8362-29.2031Q22.477-19.5136 32.4123-10.3037Q42.3476-1.09375 55.3387 7.48312Q55.7782 7.77347 56.3819 8.02444Q56.9855 8.27541 57.5792 8.27541Q58.0647 8.27541 58.6994 8.02444Q59.3342 7.77347 59.8197 7.48312Q72.7566-1.09375 82.7189-10.3037Q92.6812-19.5136 98.2951-29.2031Q103.909-38.8926 103.909-48.7732Q103.909-56.7469 100.558-62.9162Q97.206-69.0856 91.3605-72.6199Q85.5151-76.1541 78.1267-76.1541Q71.6977-76.1541 66.0814-72.7744Q60.4651-69.3946 57.5792-63.7319Q54.6474-69.3864 49.0269-72.7703Q43.4066-76.1541 36.9775-76.1541Q29.5891-76.1541 23.7707-72.6199Q17.9523-69.0856 14.5737-62.9162Q11.1952-56.7469 11.1952-48.7732ZM14.8133-48.7732Q14.8133-55.7772 17.684-61.1072Q20.5548-66.4371 25.5879-69.4595Q30.6212-72.4819 36.9693-72.4819Q41.4176-72.4819 44.9631-70.835Q48.5085-69.188 51.1612-66.469Q53.814-63.7498 55.6337-60.4794Q56.1063-59.6166 56.5647-59.268Q57.0231-58.9195 57.5792-58.9195Q58.0811-58.9195 58.5084-59.268Q58.9357-59.6166 59.4706-60.4794Q61.3067-63.7416 63.9595-66.4607Q66.6121-69.1798 70.1535-70.8309Q73.6949-72.4819 78.1432-72.4819Q84.5454-72.4819 89.5474-69.4595Q94.5495-66.4371 97.4202-61.1072Q100.291-55.7772 100.291-48.7732Q100.291-41.8197 96.9928-34.8456Q93.6948-27.8717 87.9063-21.1239Q82.1179-14.3762 74.4908-7.98941Q66.8638-1.60257 58.2139 4.18477Q57.766 4.53742 57.5792 4.53742Q57.3923 4.53742 56.8985 4.18477Q48.2405-1.60257 40.6404-7.98941Q33.0404-14.3762 27.1979-21.1239Q21.3553-27.8717 18.0844-34.8456Q14.8133-41.8197 14.8133-48.7732Z"/>
  </g>
  <g id="Ultralight-M" transform="matrix(1 0 0 1 503.113 1126)">
   <path class="multicolor-0:systemGreenColor SFSymbolsPreview28CD41" d="M10.8587-48.7732Q10.8587-39.0421 16.5433-29.496Q22.2278-19.9498 32.1194-10.8646Q42.0111-1.77926 54.7653 6.73529Q55.1052 6.96332 55.5967 7.16444Q56.0881 7.36555 56.6319 7.36555Q57.0427 7.36555 57.5652 7.16444Q58.0879 6.96332 58.4986 6.73529Q71.1862-1.77926 81.1111-10.8646Q91.036-19.9498 96.6872-29.496Q102.339-39.0421 102.339-48.7732Q102.339-56.56 99.0618-62.5859Q95.7851-68.612 90.0643-72.0777Q84.3435-75.5434 77.1047-75.5434Q70.7878-75.5434 65.0905-72.0453Q59.3932-68.5471 56.6319-62.685Q53.7998-68.5513 48.1046-72.0474Q42.4095-75.5434 36.0926-75.5434Q28.8538-75.5434 23.1662-72.0777Q17.4786-68.612 14.1687-62.5859Q10.8587-56.56 10.8587-48.7732ZM13.2429-48.7732Q13.2429-55.9268 16.2009-61.3938Q19.1588-66.8609 24.354-69.9768Q29.5493-73.0927 36.0968-73.0927Q40.5077-73.0927 44.1093-71.4395Q47.7109-69.7863 50.4507-66.9862Q53.1908-64.1861 55.0853-60.6788Q55.4083-59.9906 55.7858-59.698Q56.1631-59.4056 56.6319-59.4056Q57.0342-59.4056 57.3804-59.698Q57.7267-59.9906 58.112-60.6788Q59.998-64.1903 62.738-66.9905Q65.4779-69.7905 69.0816-71.4416Q72.6853-73.0927 77.0962-73.0927Q83.7103-73.0927 88.8744-69.9768Q94.0384-66.8609 96.9964-61.3938Q99.9543-55.9268 99.9543-48.7732Q99.9543-41.7823 96.6501-34.802Q93.3458-27.8218 87.5013-21.0553Q81.6568-14.289 73.8801-7.80869Q66.1035-1.32836 57.1545 4.6584Q56.8187 4.94873 56.6319 4.94873Q56.445 4.94873 56.0385 4.6584Q47.0938-1.32836 39.3504-7.80869Q31.607-14.289 25.696-21.0553Q19.7848-27.8218 16.5139-34.802Q13.2429-41.7823 13.2429-48.7732Z"/>
  </g>
  <g id="Black-S" transform="matrix(1 0 0 1 2882.95 696)">
   <path class="multicolor-0:systemGreenColor SFSymbolsPreview28CD41" d="M8.55078-45.4043Q8.55078-37.1523 12.8965-28.9492Q17.2422-20.7461 25.0059-13.0312Q32.7695-5.31641 42.9746 1.56836Q45.123 2.98438 47.1006 4.10742Q49.0781 5.23047 50.4453 5.23047Q51.8613 5.23047 53.8389 4.10742Q55.8164 2.98438 57.916 1.56836Q68.1211-5.31641 75.8848-13.0312Q83.6484-20.7461 87.9941-28.9492Q92.3398-37.1523 92.3398-45.4043Q92.3398-53.8027 88.8486-59.9551Q85.3574-66.1074 79.6689-69.501Q73.9805-72.8945 67.4375-72.8945Q61.2852-72.8945 57.0859-70.6973Q52.8867-68.5 50.4453-65.1797Q48.0527-68.5 43.8291-70.6973Q39.6055-72.8945 33.4531-72.8945Q26.9102-72.8945 21.2217-69.501Q15.5332-66.1074 12.042-59.9551Q8.55078-53.8027 8.55078-45.4043ZM23.9805-45.5996Q23.9805-49.3105 25.6162-52.1426Q27.252-54.9746 30.0596-56.6104Q32.8672-58.2461 36.334-58.2461Q39.0684-58.2461 40.9727-57.4404Q42.877-56.6348 44.2686-55.3652Q45.6602-54.0957 46.7344-52.6797Q47.5645-51.5078 48.4678-50.873Q49.3711-50.2383 50.4453-50.2383Q51.5684-50.2383 52.3984-50.873Q53.2285-51.5078 54.1074-52.6797Q55.2793-54.1445 56.6465-55.4141Q58.0137-56.6836 59.918-57.4648Q61.8223-58.2461 64.5566-58.2461Q68.0723-58.2461 70.8555-56.6104Q73.6387-54.9746 75.2744-52.1426Q76.9102-49.3105 76.9102-45.5996Q76.9102-41.8398 75.1768-37.5918Q73.4434-33.3438 70.0986-28.9004Q66.7539-24.457 61.9199-20.0381Q57.0859-15.6191 50.8359-11.4688Q50.6406-11.3223 50.4453-11.3223Q50.2988-11.3223 50.0547-11.4688Q43.8047-15.6191 38.9707-20.0381Q34.1367-24.457 30.792-28.9004Q27.4473-33.3438 25.7139-37.5918Q23.9805-41.8398 23.9805-45.5996Z"/>
  </g>
  <g id="Heavy-S" transform="matrix(1 0 0 1 2586.74 696)">
   <path class="multicolor-0:systemGreenColor SFSymbolsPreview28CD41" d="M8.87347-45.508Q8.87347-37.256 13.2019-29.0817Q17.5303-20.9074 25.3343-13.2098Q33.1383-5.51232 43.5278 1.38397Q45.3305 2.5695 47.043 3.51391Q48.7554 4.45833 49.9498 4.45833Q51.1814 4.45833 52.8997 3.51391Q54.6179 2.5695 56.3717 1.38397Q66.7612-5.51232 74.5652-13.2098Q82.3692-20.9074 86.6976-29.0817Q91.026-37.256 91.026-45.508Q91.026-53.5492 87.6789-59.5056Q84.3317-65.462 78.8046-68.7634Q73.2775-72.0647 66.7921-72.0647Q60.8127-72.0647 56.6307-69.856Q52.4488-67.6472 49.9498-64.2232Q47.4995-67.6357 43.2932-69.8502Q39.0869-72.0647 33.1074-72.0647Q26.6221-72.0647 21.0949-68.7634Q15.5678-65.462 12.2206-59.5056Q8.87347-53.5492 8.87347-45.508ZM22.321-45.6572Q22.321-49.6678 24.0316-52.7073Q25.7423-55.7467 28.6882-57.4805Q31.6341-59.2142 35.2968-59.2142Q38.2386-59.2142 40.3043-58.299Q42.3699-57.3839 43.8537-55.976Q45.3375-54.5682 46.4347-53.0715Q47.2764-51.8766 48.1163-51.2821Q48.9562-50.6878 49.9498-50.6878Q50.9806-50.6878 51.7588-51.2821Q52.537-51.8766 53.4275-53.0715Q54.6224-54.594 56.0876-56.0018Q57.5527-57.4096 59.6126-58.3119Q61.6725-59.2142 64.6142-59.2142Q68.3143-59.2142 71.2358-57.4805Q74.1573-55.7467 75.8679-52.7073Q77.5786-49.6678 77.5786-45.6572Q77.5786-41.5287 75.6493-36.9983Q73.72-32.4679 70.1389-27.8401Q66.558-23.2124 61.5742-18.7301Q56.5904-14.2477 50.4556-10.1665Q50.1335-9.93936 49.9498-9.93936Q49.8033-9.93936 49.4554-10.1665Q43.3092-14.2477 38.3253-18.7301Q33.3415-23.2124 29.7606-27.8401Q26.1796-32.4679 24.2503-36.9983Q22.321-41.5287 22.321-45.6572Z"/>
  </g>
  <g id="Bold-S" transform="matrix(1 0 0 1 2290.58 696)">
   <path class="multicolor-0:systemGreenColor SFSymbolsPreview28CD41" d="M9.23438-45.624Q9.23438-37.3721 13.5434-29.23Q17.8526-21.0879 25.7017-13.4096Q33.5508-5.73145 44.1465 1.17773Q45.5625 2.10547 46.9785 2.85009Q48.3945 3.59473 49.3955 3.59473Q50.4209 3.59473 51.8492 2.85009Q53.2773 2.10547 54.6445 1.17773Q65.2403-5.73145 73.0893-13.4096Q80.9384-21.0879 85.2476-29.23Q89.5566-37.3721 89.5566-45.624Q89.5566-53.2656 86.3706-59.0029Q83.1846-64.7402 77.8379-67.9385Q72.4913-71.1367 66.0703-71.1367Q60.2842-71.1367 56.1216-68.9151Q51.959-66.6934 49.3955-63.1534Q46.8809-66.6689 42.6938-68.9029Q38.5069-71.1367 32.7207-71.1367Q26.2998-71.1367 20.9532-67.9385Q15.6065-64.7402 12.4204-59.0029Q9.23438-53.2656 9.23438-45.624ZM20.4648-45.7217Q20.4648-50.0673 22.2593-53.3389Q24.0538-56.6103 27.1543-58.4536Q30.2549-60.2969 34.1367-60.2969Q37.3105-60.2969 39.5566-59.2592Q41.8028-58.2217 43.3897-56.6591Q44.9766-55.0967 46.0996-53.5097Q46.9542-52.2891 47.7231-51.7397Q48.4922-51.1904 49.3955-51.1904Q50.3232-51.1904 51.0434-51.7397Q51.7636-52.2891 52.667-53.5097Q53.8877-55.0966 55.4624-56.6592Q57.0371-58.2217 59.271-59.2592Q61.5049-60.2969 64.6787-60.2969Q68.585-60.2969 71.6612-58.4536Q74.7373-56.6103 76.5318-53.3389Q78.3262-50.0673 78.3262-45.7217Q78.3262-41.1806 76.1778-36.3345Q74.0293-31.4883 70.184-26.6543Q66.3389-21.8203 61.1875-17.2671Q56.0361-12.7139 50.0303-8.70998Q49.5664-8.3926 49.3955-8.3926Q49.249-8.3926 48.7851-8.70998Q42.7549-12.7139 37.6035-17.2671Q32.4522-21.8203 28.607-26.6543Q24.7617-31.4883 22.6133-36.3345Q20.4648-41.1806 20.4648-45.7217Z"/>
  </g>
  <g id="Semibold-S" transform="matrix(1 0 0 1 1994.25 696)">
   <path class="multicolor-0:systemGreenColor SFSymbolsPreview28CD41" d="M9.4832-45.704Q9.4832-37.452 13.7789-29.3321Q18.0747-21.2123 25.955-13.5474Q33.8351-5.88252 44.5731 1.03555Q45.7225 1.78555 46.9341 2.39243Q48.1457 2.99931 49.0134 2.99931Q49.8966 2.99931 51.1249 2.39243Q52.3531 1.78555 53.4537 1.03555Q64.1916-5.88252 72.0718-13.5474Q79.952-21.2123 84.2478-29.3321Q88.5435-37.452 88.5435-45.704Q88.5435-53.0701 85.4686-58.6564Q82.3936-64.2425 77.1713-67.3698Q71.9492-70.4969 65.5726-70.4969Q59.9198-70.4969 55.7705-68.2663Q51.6212-66.0357 49.0134-62.4158Q46.4543-66.0024 42.2806-68.2497Q38.1069-70.4969 32.4541-70.4969Q26.0777-70.4969 20.8554-67.3698Q15.6331-64.2425 12.5581-58.6564Q9.4832-53.0701 9.4832-45.704ZM19.1852-45.7661Q19.1852-50.3428 21.0373-53.7744Q22.8896-57.2058 26.0968-59.1246Q29.304-61.0434 33.337-61.0434Q36.6707-61.0434 39.0412-59.9213Q41.4117-58.7993 43.0697-57.1301Q44.7278-55.4611 45.8685-53.8119Q46.732-52.5734 47.4521-52.0552Q48.1723-51.537 49.0134-51.537Q49.87-51.537 50.5502-52.0552Q51.2304-52.5734 52.1427-53.8119Q53.3812-55.4432 55.0314-57.1124Q56.6816-58.7816 59.0355-59.9124Q61.3894-61.0434 64.7231-61.0434Q68.7716-61.0434 71.9544-59.1246Q75.1372-57.2058 76.9894-53.7744Q78.8416-50.3428 78.8416-45.7661Q78.8416-40.9407 76.5421-35.8768Q74.2426-30.8129 70.2152-25.8367Q66.1878-20.8605 60.9209-16.2585Q55.654-11.6563 49.737-7.70578Q49.1754-7.32618 49.0134-7.32618Q48.8669-7.32618 48.323-7.70578Q42.3728-11.6563 37.1058-16.2585Q31.839-20.8605 27.8116-25.8367Q23.7842-30.8129 21.4847-35.8768Q19.1852-40.9407 19.1852-45.7661Z"/>
  </g>
  <g id="Medium-S" transform="matrix(1 0 0 1 1697.83 696)">
   <path class="multicolor-0:systemGreenColor SFSymbolsPreview28CD41" d="M9.67188-45.7647Q9.67188-37.5127 13.9575-29.4096Q18.2432-21.3067 26.147-13.6519Q34.0507-5.99707 44.8965 0.927734Q45.8438 1.54297 46.9004 2.04541Q47.957 2.54785 48.7236 2.54785Q49.499 2.54785 50.5757 2.04541Q51.6524 1.54297 52.5507 0.927734Q63.3965-5.99707 71.3003-13.6519Q79.2041-21.3067 83.4898-29.4096Q87.7754-37.5127 87.7754-45.7647Q87.7754-52.9219 84.7847-58.3936Q81.7939-63.8652 76.666-66.9385Q71.5381-70.0117 65.1953-70.0117Q59.6436-70.0117 55.5044-67.7744Q51.3652-65.5371 48.7236-61.8565Q46.1309-65.4971 41.9673-67.7544Q37.8037-70.0117 32.252-70.0117Q25.9092-70.0117 20.7813-66.9385Q15.6533-63.8652 12.6626-58.3936Q9.67188-52.9219 9.67188-45.7647ZM18.2148-45.7998Q18.2148-50.5517 20.1108-54.1045Q22.0069-57.6572 25.2949-59.6333Q28.583-61.6094 32.7305-61.6094Q36.1855-61.6094 38.6504-60.4233Q41.1152-59.2373 42.8271-57.4873Q44.5391-55.7373 45.6933-54.041Q46.5635-52.7891 47.2466-52.2944Q47.9297-51.7998 48.7236-51.7998Q49.5264-51.7998 50.1763-52.2944Q50.8261-52.7891 51.7451-54.041Q52.9971-55.706 54.7046-57.4561Q56.4121-59.2061 58.8569-60.4077Q61.3018-61.6094 64.7568-61.6094Q68.9131-61.6094 72.1768-59.6333Q75.4404-57.6572 77.3365-54.1045Q79.2324-50.5517 79.2324-45.7998Q79.2324-40.7588 76.8184-35.5297Q74.4043-30.3008 70.2387-25.2168Q66.0732-20.1328 60.7188-15.4937Q55.3642-10.8545 49.5146-6.94434Q48.8789-6.51758 48.7236-6.51758Q48.5771-6.51758 47.9726-6.94434Q42.083-10.8545 36.7285-15.4937Q31.374-20.1328 27.2085-25.2168Q23.043-30.3008 20.6289-35.5297Q18.2148-40.7588 18.2148-45.7998Z"/>
  </g>
  <g id="Regular-S" transform="matrix(1 0 0 1 1401.5 696)">
   <path class="multicolor-0:systemGreenColor SFSymbolsPreview28CD41" d="M9.91797-45.8438Q9.91797-37.5918 14.1904-29.5107Q18.4629-21.4297 26.3975-13.7881Q34.332-6.14648 45.3184 0.787109Q46.002 1.22656 46.8564 1.59277Q47.7109 1.95898 48.3457 1.95898Q48.9805 1.95898 49.8594 1.59277Q50.7383 1.22656 51.373 0.787109Q62.3594-6.14648 70.2939-13.7881Q78.2285-21.4297 82.501-29.5107Q86.7734-37.5918 86.7734-45.8438Q86.7734-52.7285 83.8926-58.0508Q81.0117-63.373 76.0068-66.376Q71.002-69.3789 64.7031-69.3789Q59.2832-69.3789 55.1572-67.1328Q51.0312-64.8867 48.3457-61.127Q45.709-64.8379 41.5586-67.1084Q37.4082-69.3789 31.9883-69.3789Q25.6895-69.3789 20.6846-66.376Q15.6797-63.373 12.7988-58.0508Q9.91797-52.7285 9.91797-45.8438ZM16.9492-45.8438Q16.9492-50.8242 18.9023-54.5352Q20.8555-58.2461 24.249-60.2969Q27.6426-62.3477 31.9395-62.3477Q35.5527-62.3477 38.1406-61.0781Q40.7285-59.8086 42.5107-57.9531Q44.293-56.0977 45.4648-54.3398Q46.3438-53.0703 46.9785-52.6064Q47.6133-52.1426 48.3457-52.1426Q49.0781-52.1426 49.6885-52.6064Q50.2988-53.0703 51.2266-54.3398Q52.4961-56.0488 54.2783-57.9043Q56.0605-59.7598 58.624-61.0537Q61.1875-62.3477 64.8008-62.3477Q69.0977-62.3477 72.4668-60.2969Q75.8359-58.2461 77.7891-54.5352Q79.7422-50.8242 79.7422-45.8438Q79.7422-40.5215 77.1787-35.0771Q74.6152-29.6328 70.2695-24.4082Q65.9238-19.1836 60.4551-14.4961Q54.9863-9.8086 49.2246-5.95117Q48.4922-5.46289 48.3457-5.46289Q48.1992-5.46289 47.5156-5.95117Q41.7051-9.8086 36.2363-14.4961Q30.7676-19.1836 26.4219-24.4082Q22.0762-29.6328 19.5127-35.0771Q16.9492-40.5215 16.9492-45.8438Z"/>
  </g>
  <g id="Light-S" transform="matrix(1 0 0 1 1106.03 696)">
   <path class="multicolor-0:systemGreenColor SFSymbolsPreview28CD41" d="M9.47852-45.8438Q9.47852-37.7871 13.8079-29.8932Q18.1374-21.9994 26.015-14.5205Q33.8926-7.04166 44.5697-0.189454Q45.1231 0.168618 45.831 0.469723Q46.539 0.77083 47.1087 0.77083Q47.6459 0.77083 48.3783 0.469723Q49.1107 0.168618 49.6478-0.189454Q60.3086-7.04166 68.1943-14.5205Q76.0801-21.9994 80.4014-29.8932Q84.7226-37.7871 84.7226-45.8438Q84.7226-52.4844 81.9395-57.6195Q79.1562-62.7545 74.3141-65.668Q69.472-68.5814 63.3685-68.5814Q58.0951-68.5814 53.8633-66.1807Q49.6315-63.7799 47.1087-59.7598Q44.6022-63.7474 40.3542-66.1644Q36.1061-68.5814 30.8327-68.5814Q24.7292-68.5814 19.8952-65.668Q15.0612-62.7545 12.2698-57.6195Q9.47852-52.4844 9.47852-45.8438ZM14.8984-45.8438Q14.8984-51.0195 16.9655-54.9095Q19.0326-58.7995 22.6377-60.9723Q26.2429-63.1452 30.8002-63.1452Q34.3646-63.1452 37.0257-61.8675Q39.6868-60.5898 41.583-58.6286Q43.4792-56.6673 44.7487-54.6002Q45.4323-53.5586 45.9613-53.1679Q46.4902-52.7774 47.1087-52.7774Q47.7109-52.7774 48.2155-53.1679Q48.72-53.5586 49.4525-54.6002Q50.7871-56.6347 52.6833-58.596Q54.5794-60.5573 57.2243-61.8512Q59.8691-63.1452 63.4336-63.1452Q68.0072-63.1452 71.5879-60.9723Q75.1686-58.7995 77.2357-54.9095Q79.3027-51.0195 79.3027-45.8438Q79.3027-40.4727 76.7311-35.0201Q74.1595-29.5677 69.7405-24.3187Q65.3216-19.0697 59.6576-14.2601Q53.9935-9.45053 47.8411-5.33268Q47.2552-4.92578 47.1087-4.92578Q46.9622-4.92578 46.3926-5.33268Q40.2077-9.45053 34.5517-14.2601Q28.8958-19.0697 24.4606-24.3187Q20.0254-29.5677 17.4619-35.0201Q14.8984-40.4727 14.8984-45.8438Z"/>
  </g>
  <g id="Thin-S" transform="matrix(1 0 0 1 810.969 696)">
   <path class="multicolor-0:systemGreenColor SFSymbolsPreview28CD41" d="M8.8973-45.8438Q8.8973-38.0454 13.3021-30.3991Q17.7068-22.7528 25.5091-15.4892Q33.3114-8.22562 43.5795-1.48104Q43.9606-1.2306 44.4749-1.0156Q44.9891-0.800594 45.4727-0.800594Q45.8807-0.800594 46.4193-1.0156Q46.9581-1.2306 47.366-1.48104Q57.5963-8.22562 65.4174-15.4892Q73.2386-22.7528 77.6244-30.3991Q82.0103-38.0454 82.0103-45.8438Q82.0103-52.1615 79.3563-57.049Q76.7022-61.9366 72.0754-64.7316Q67.4485-67.5266 61.6033-67.5266Q56.5237-67.5266 52.1519-64.9214Q47.7802-62.3161 45.4727-57.9516Q43.1384-62.3051 38.7612-64.9159Q34.384-67.5266 29.3043-67.5266Q23.4591-67.5266 18.8512-64.7316Q14.2432-61.9366 11.5702-57.049Q8.8973-52.1615 8.8973-45.8438ZM12.1861-45.8438Q12.1861-51.2779 14.4038-55.4046Q16.6216-59.5313 20.5065-61.8656Q24.3916-64.2 29.2933-64.2Q32.7932-64.2 35.5512-62.9115Q38.3091-61.6231 40.356-59.5219Q42.4029-57.4207 43.8015-54.9447Q44.2268-54.2044 44.6159-53.9106Q45.0049-53.6169 45.4727-53.6169Q45.9027-53.6169 46.2673-53.9106Q46.632-54.2044 47.1061-54.9447Q48.5268-57.4097 50.5737-59.5109Q52.6205-61.6121 55.373-62.906Q58.1255-64.2 61.6254-64.2Q66.5649-64.2 70.4255-61.8656Q74.286-59.5313 76.5038-55.4046Q78.7215-51.2779 78.7215-45.8438Q78.7215-40.4081 76.1391-34.9448Q73.5567-29.4816 69.0409-24.2003Q64.5251-18.919 58.6028-13.948Q52.6804-8.97695 46.0114-4.51468Q45.6192-4.21541 45.4727-4.21541Q45.3262-4.21541 44.9073-4.51468Q38.2273-8.97695 32.3238-13.948Q26.4203-18.919 21.8667-24.2003Q17.3131-29.4816 14.7496-34.9448Q12.1861-40.4081 12.1861-45.8438Z"/>
  </g>
  <g id="Ultralight-S" transform="matrix(1 0 0 1 515.101 696)">
   <path class="multicolor-0:systemGreenColor SFSymbolsPreview28CD41" d="M8.59961-45.8438Q8.59961-38.1777 13.043-30.6582Q17.4863-23.1387 25.25-15.9854Q33.0137-8.83203 43.0723-2.14258Q43.3652-1.94727 43.7803-1.77637Q44.1953-1.60547 44.6348-1.60547Q44.9766-1.60547 45.416-1.77637Q45.8555-1.94727 46.1973-2.14258Q56.207-8.83203 63.9951-15.9854Q71.7832-23.1387 76.2021-30.6582Q80.6211-38.1777 80.6211-45.8438Q80.6211-51.9961 78.0332-56.7568Q75.4453-61.5176 70.9287-64.252Q66.4121-66.9863 60.6992-66.9863Q55.7188-66.9863 51.2754-64.2764Q46.832-61.5664 44.6348-57.0254Q42.3887-61.5664 37.9453-64.2764Q33.502-66.9863 28.5215-66.9863Q22.8086-66.9863 18.3164-64.252Q13.8242-61.5176 11.2119-56.7568Q8.59961-51.9961 8.59961-45.8438ZM10.7969-45.8438Q10.7969-51.4102 13.0918-55.6582Q15.3867-59.9062 19.415-62.3232Q23.4434-64.7402 28.5215-64.7402Q31.9883-64.7402 34.7959-63.4463Q37.6035-62.1523 39.7275-59.9795Q41.8516-57.8066 43.3164-55.1211Q43.6094-54.5352 43.9268-54.291Q44.2441-54.0469 44.6348-54.0469Q44.9766-54.0469 45.2695-54.291Q45.5625-54.5352 45.9043-55.1211Q47.3691-57.8066 49.4932-59.9795Q51.6172-62.1523 54.4248-63.4463Q57.2324-64.7402 60.6992-64.7402Q65.8262-64.7402 69.8301-62.3232Q73.834-59.9062 76.1289-55.6582Q78.4238-51.4102 78.4238-45.8438Q78.4238-40.375 75.8359-34.9062Q73.248-29.4375 68.6826-24.1396Q64.1172-18.8418 58.0625-13.7881Q52.0078-8.73438 45.0742-4.0957Q44.7812-3.85156 44.6348-3.85156Q44.4883-3.85156 44.1465-4.0957Q37.2129-8.73438 31.1826-13.7881Q25.1523-18.8418 20.5381-24.1396Q15.9238-29.4375 13.3604-34.9062Q10.7969-40.375 10.7969-45.8438Z"/>
  </g>
 </g>
</svg>
